<?xml version="1.0" standalone="no"?>
<!DOCTYPE svg PUBLIC "-//W3C//DTD SVG 20010904//EN"
 "http://www.w3.org/TR/2001/REC-SVG-20010904/DTD/svg10.dtd">
<svg version="1.0" xmlns="http://www.w3.org/2000/svg"
 width="1056.000000pt" height="992.000000pt" viewBox="0 0 1056.000000 992.000000"
 preserveAspectRatio="xMidYMid meet">

<g transform="translate(0.000000,992.000000) scale(0.100000,-0.100000)"
fill="#000000" stroke="none">
<path d="M4364 7154 c-181 -30 -368 -105 -526 -210 -295 -196 -502 -500 -579
-852 -19 -86 -22 -137 -26 -462 -3 -201 -3 -363 0 -360 3 3 33 48 68 100 86
129 236 276 367 360 l101 65 1 62 c2 291 222 600 510 713 148 58 54 54 1425
60 1253 5 1260 5 1305 26 55 26 123 98 141 150 7 21 13 66 13 99 -1 111 -59
201 -158 246 -39 18 -96 19 -1301 18 -1017 -1 -1276 -4 -1341 -15z"/>
<path d="M5364 5774 c-61 -22 -118 -76 -145 -136 -24 -53 -24 -54 -24 -418 0
-310 3 -377 18 -448 83 -389 361 -683 736 -778 188 -48 437 -27 608 51 30 14
60 25 66 25 17 0 2 -275 -21 -361 -71 -267 -281 -479 -550 -555 -41 -11 -124
-18 -292 -23 -226 -7 -237 -8 -285 -33 -27 -14 -62 -39 -77 -55 -70 -73 -89
-202 -44 -298 28 -60 99 -127 154 -143 61 -18 447 -16 563 4 520 87 939 479
1057 989 39 167 42 257 42 1118 0 913 1 891 -59 975 -17 22 -52 53 -78 69 -43
25 -57 28 -138 28 -79 0 -95 -3 -135 -27 -55 -32 -81 -60 -112 -118 -23 -44
-23 -52 -29 -410 -5 -340 -7 -369 -26 -422 -154 -411 -727 -386 -838 37 -12
47 -15 124 -15 380 0 357 -4 390 -63 467 -46 60 -114 92 -202 95 -43 2 -86 -3
-111 -13z"/>
<path d="M4355 5765 c-303 -55 -534 -174 -740 -382 -185 -186 -295 -391 -358
-665 -20 -90 -21 -119 -24 -992 -4 -1003 -7 -963 64 -1046 102 -118 300 -120
403 -3 73 83 70 44 70 1004 0 712 2 869 15 926 43 203 169 384 348 501 140 92
246 121 467 131 224 10 281 36 339 152 71 143 15 303 -129 368 -40 18 -65 20
-215 20 -93 0 -201 -7 -240 -14z"/>
<path d="M4540 4809 c-127 -22 -244 -109 -296 -222 -26 -56 -29 -72 -29 -172
0 -101 2 -115 28 -168 40 -80 112 -151 194 -190 63 -29 76 -32 168 -32 137 1
196 24 286 114 89 89 113 150 114 281 0 82 -4 103 -27 152 -36 77 -70 121
-130 164 -89 66 -198 91 -308 73z"/>
</g>
</svg>
